<svg width="71" height="71" viewBox="0 0 71 71" fill="none" xmlns="http://www.w3.org/2000/svg">
<rect x="0.608398" y="0.776215" width="69.9301" height="69.9301" rx="34.965" fill="#363842"/>
<path d="M43.7684 20.007C40.3838 20.007 37.4206 21.4624 35.5734 23.9225C33.7263 21.4624 30.763 20.007 27.3785 20.007C24.6844 20.01 22.1015 21.0816 20.1964 22.9866C18.2914 24.8917 17.2198 27.4746 17.2168 30.1687C17.2168 41.6416 34.2278 50.9281 34.9522 51.3116C35.1432 51.4143 35.3566 51.4681 35.5734 51.4681C35.7902 51.4681 36.0037 51.4143 36.1946 51.3116C36.919 50.9281 53.9301 41.6416 53.9301 30.1687C53.927 27.4746 52.8554 24.8917 50.9504 22.9866C49.0454 21.0816 46.4625 20.01 43.7684 20.007ZM35.5734 48.6565C32.5806 46.9126 19.8392 38.9684 19.8392 30.1687C19.8418 28.1699 20.6369 26.2538 22.0503 24.8405C23.4636 23.4271 25.3797 22.632 27.3785 22.6294C30.5663 22.6294 33.2428 24.3274 34.3606 27.0546C34.4594 27.2951 34.6274 27.5008 34.8434 27.6456C35.0593 27.7903 35.3134 27.8676 35.5734 27.8676C35.8334 27.8676 36.0875 27.7903 36.3035 27.6456C36.5194 27.5008 36.6875 27.2951 36.7863 27.0546C37.9041 24.3224 40.5805 22.6294 43.7684 22.6294C45.7671 22.632 47.6833 23.4271 49.0966 24.8405C50.5099 26.2538 51.3051 28.1699 51.3077 30.1687C51.3077 38.9553 38.5629 46.9109 35.5734 48.6565Z" fill="white"/>
</svg>
