<svg width="43" height="42" viewBox="0 0 43 42" fill="none" xmlns="http://www.w3.org/2000/svg">
<g clip-path="url(#clip0_1_150)">
<path d="M15.8462 35.4161C15.8462 35.9347 15.6924 36.4417 15.4042 36.873C15.1161 37.3042 14.7065 37.6404 14.2273 37.8388C13.7481 38.0373 13.2209 38.0892 12.7122 37.9881C12.2035 37.8869 11.7362 37.6371 11.3695 37.2704C11.0027 36.9036 10.753 36.4364 10.6518 35.9277C10.5506 35.419 10.6025 34.8917 10.801 34.4125C10.9995 33.9334 11.3356 33.5238 11.7669 33.2356C12.1981 32.9475 12.7051 32.7937 13.2238 32.7937C13.9193 32.7937 14.5863 33.07 15.0781 33.5618C15.5699 34.0536 15.8462 34.7206 15.8462 35.4161ZM30.2692 32.7937C29.7506 32.7937 29.2436 32.9475 28.8123 33.2356C28.3811 33.5238 28.045 33.9334 27.8465 34.4125C27.648 34.8917 27.5961 35.419 27.6972 35.9277C27.7984 36.4364 28.0482 36.9036 28.4149 37.2704C28.7817 37.6371 29.2489 37.8869 29.7576 37.9881C30.2663 38.0892 30.7936 38.0373 31.2728 37.8388C31.752 37.6404 32.1615 37.3042 32.4497 36.873C32.7378 36.4417 32.8916 35.9347 32.8916 35.4161C32.8916 34.7206 32.6153 34.0536 32.1235 33.5618C31.6317 33.07 30.9647 32.7937 30.2692 32.7937ZM38.079 12.1998L33.403 27.3949C33.1581 28.2004 32.66 28.9055 31.9828 29.4056C31.3055 29.9057 30.4851 30.1742 29.6431 30.1713H13.8908C13.0369 30.1681 12.207 29.8884 11.5253 29.374C10.8437 28.8595 10.347 28.1382 10.1097 27.3178L4.17986 6.56992H1.42308C1.07533 6.56992 0.741827 6.43177 0.495931 6.18588C0.250035 5.93998 0.111893 5.60648 0.111893 5.25873C0.111893 4.91098 0.250035 4.57747 0.495931 4.33158C0.741827 4.08568 1.07533 3.94754 1.42308 3.94754H4.17986C4.74926 3.94943 5.30273 4.13568 5.75743 4.4784C6.21214 4.82113 6.54362 5.30191 6.70226 5.84876L8.03147 10.5035H36.8252C37.0304 10.5034 37.2327 10.5515 37.4159 10.6439C37.5991 10.7362 37.7581 10.8703 37.8801 11.0353C38.002 11.2003 38.0836 11.3916 38.1181 11.5939C38.1527 11.7962 38.1393 12.0037 38.079 12.1998ZM35.0502 13.1259H8.78049L12.6305 26.5983C12.7088 26.8722 12.8742 27.1131 13.1016 27.2846C13.329 27.4561 13.606 27.5489 13.8908 27.5489H29.6431C29.9237 27.549 30.1969 27.4591 30.4226 27.2925C30.6483 27.1258 30.8146 26.8911 30.897 26.6229L35.0502 13.1259Z" fill="white"/>
</g>
<defs>
<clipPath id="clip0_1_150">
<rect width="41.958" height="41.958" fill="white" transform="translate(0.111893 0.0139771)"/>
</clipPath>
</defs>
</svg>
