<svg width="155" height="29" viewBox="0 0 155 29" fill="none" xmlns="http://www.w3.org/2000/svg">
<path d="M26.5808 12.9523L21.653 17.253L23.1291 23.656C23.2073 23.9907 23.185 24.341 23.0651 24.6632C22.9451 24.9853 22.7329 25.2649 22.455 25.4671C22.177 25.6693 21.8456 25.7851 21.5022 25.7999C21.1588 25.8148 20.8186 25.7281 20.5242 25.5507L14.9397 22.1634L9.36712 25.5507C9.07272 25.7281 8.73256 25.8148 8.38916 25.7999C8.04576 25.7851 7.71436 25.6693 7.43639 25.4671C7.15841 25.2649 6.94621 24.9853 6.8263 24.6632C6.7064 24.341 6.68411 23.9907 6.76222 23.656L8.23622 17.2596L3.30724 12.9523C3.04654 12.7275 2.85803 12.4307 2.76534 12.0991C2.67266 11.7676 2.67992 11.416 2.78623 11.0886C2.89254 10.7611 3.09315 10.4724 3.36292 10.2585C3.63269 10.0446 3.95959 9.91515 4.30265 9.88632L10.7996 9.3236L13.3356 3.27465C13.4681 2.95725 13.6915 2.68613 13.9777 2.49543C14.2639 2.30473 14.6001 2.20297 14.944 2.20297C15.288 2.20297 15.6242 2.30473 15.9104 2.49543C16.1966 2.68613 16.42 2.95725 16.5524 3.27465L19.0961 9.3236L25.5909 9.88632C25.9339 9.91515 26.2609 10.0446 26.5306 10.2585C26.8004 10.4724 27.001 10.7611 27.1073 11.0886C27.2136 11.416 27.2209 11.7676 27.1282 12.0991C27.0355 12.4307 26.847 12.7275 26.5863 12.9523H26.5808Z" fill="#363842"/>
<path d="M58.0494 12.9523L53.1215 17.253L54.5977 23.656C54.6758 23.9907 54.6535 24.341 54.5336 24.6632C54.4137 24.9853 54.2015 25.2649 53.9235 25.4671C53.6455 25.6693 53.3141 25.7851 52.9707 25.7999C52.6273 25.8148 52.2872 25.7281 51.9928 25.5507L46.4082 22.1634L40.8357 25.5507C40.5413 25.7281 40.2011 25.8148 39.8577 25.7999C39.5143 25.7851 39.1829 25.6693 38.9049 25.4671C38.627 25.2649 38.4147 24.9853 38.2948 24.6632C38.1749 24.341 38.1526 23.9907 38.2308 23.656L39.7048 17.2596L34.7758 12.9523C34.5151 12.7275 34.3266 12.4307 34.2339 12.0991C34.1412 11.7676 34.1485 11.416 34.2548 11.0886C34.3611 10.7611 34.5617 10.4724 34.8315 10.2585C35.1012 10.0446 35.4281 9.91515 35.7712 9.88632L42.2681 9.3236L44.8042 3.27465C44.9366 2.95725 45.16 2.68613 45.4462 2.49543C45.7324 2.30473 46.0687 2.20297 46.4126 2.20297C46.7565 2.20297 47.0927 2.30473 47.3789 2.49543C47.6651 2.68613 47.8885 2.95725 48.021 3.27465L50.5647 9.3236L57.0594 9.88632C57.4025 9.91515 57.7294 10.0446 57.9992 10.2585C58.2689 10.4724 58.4695 10.7611 58.5758 11.0886C58.6822 11.416 58.6894 11.7676 58.5967 12.0991C58.5041 12.4307 58.3155 12.7275 58.0548 12.9523H58.0494Z" fill="#363842"/>
<path d="M89.5179 12.9523L84.59 17.253L86.0662 23.656C86.1443 23.9907 86.122 24.341 86.0021 24.6632C85.8822 24.9853 85.67 25.2649 85.392 25.4671C85.1141 25.6693 84.7827 25.7851 84.4393 25.7999C84.0959 25.8148 83.7557 25.7281 83.4613 25.5507L77.8767 22.1634L72.3042 25.5507C72.0098 25.7281 71.6696 25.8148 71.3262 25.7999C70.9828 25.7851 70.6514 25.6693 70.3734 25.4671C70.0955 25.2649 69.8833 24.9853 69.7634 24.6632C69.6435 24.341 69.6212 23.9907 69.6993 23.656L71.1733 17.2596L66.2443 12.9523C65.9836 12.7275 65.7951 12.4307 65.7024 12.0991C65.6097 11.7676 65.617 11.416 65.7233 11.0886C65.8296 10.7611 66.0302 10.4724 66.3 10.2585C66.5697 10.0446 66.8967 9.91515 67.2397 9.88632L73.7366 9.3236L76.2727 3.27465C76.4051 2.95725 76.6285 2.68613 76.9147 2.49543C77.2009 2.30473 77.5372 2.20297 77.8811 2.20297C78.225 2.20297 78.5613 2.30473 78.8475 2.49543C79.1337 2.68613 79.3571 2.95725 79.4895 3.27465L82.0332 9.3236L88.528 9.88632C88.871 9.91515 89.1979 10.0446 89.4677 10.2585C89.7374 10.4724 89.9381 10.7611 90.0444 11.0886C90.1507 11.416 90.1579 11.7676 90.0653 12.0991C89.9726 12.4307 89.7841 12.7275 89.5234 12.9523H89.5179Z" fill="#363842"/>
<path d="M120.986 12.9523L116.059 17.253L117.535 23.656C117.613 23.9907 117.591 24.341 117.471 24.6632C117.351 24.9853 117.139 25.2649 116.861 25.4671C116.583 25.6693 116.251 25.7851 115.908 25.7999C115.564 25.8148 115.224 25.7281 114.93 25.5507L109.345 22.1634L103.773 25.5507C103.478 25.7281 103.138 25.8148 102.795 25.7999C102.451 25.7851 102.12 25.6693 101.842 25.4671C101.564 25.2649 101.352 24.9853 101.232 24.6632C101.112 24.341 101.09 23.9907 101.168 23.656L102.642 17.2596L97.7128 12.9523C97.4521 12.7275 97.2636 12.4307 97.1709 12.0991C97.0783 11.7676 97.0855 11.416 97.1918 11.0886C97.2981 10.7611 97.4988 10.4724 97.7685 10.2585C98.0383 10.0446 98.3652 9.91515 98.7083 9.88632L105.205 9.3236L107.741 3.27465C107.874 2.95725 108.097 2.68613 108.383 2.49543C108.669 2.30473 109.006 2.20297 109.35 2.20297C109.694 2.20297 110.03 2.30473 110.316 2.49543C110.602 2.68613 110.826 2.95725 110.958 3.27465L113.502 9.3236L119.996 9.88632C120.34 9.91515 120.666 10.0446 120.936 10.2585C121.206 10.4724 121.407 10.7611 121.513 11.0886C121.619 11.416 121.626 11.7676 121.534 12.0991C121.441 12.4307 121.253 12.7275 120.992 12.9523H120.986Z" fill="#363842"/>
<path d="M152.455 12.9523L147.527 17.253L149.003 23.656C149.081 23.9907 149.059 24.341 148.939 24.6632C148.819 24.9853 148.607 25.2649 148.329 25.4671C148.051 25.6693 147.72 25.7851 147.376 25.7999C147.033 25.8148 146.693 25.7281 146.398 25.5507L140.814 22.1634L135.241 25.5507C134.947 25.7281 134.607 25.8148 134.263 25.7999C133.92 25.7851 133.588 25.6693 133.311 25.4671C133.033 25.2649 132.82 24.9853 132.7 24.6632C132.581 24.341 132.558 23.9907 132.636 23.656L134.11 17.2596L129.181 12.9523C128.921 12.7275 128.732 12.4307 128.639 12.0991C128.547 11.7676 128.554 11.416 128.66 11.0886C128.767 10.7611 128.967 10.4724 129.237 10.2585C129.507 10.0446 129.834 9.91515 130.177 9.88632L136.674 9.3236L139.21 3.27465C139.342 2.95725 139.566 2.68613 139.852 2.49543C140.138 2.30473 140.474 2.20297 140.818 2.20297C141.162 2.20297 141.498 2.30473 141.785 2.49543C142.071 2.68613 142.294 2.95725 142.427 3.27465L144.97 9.3236L151.465 9.88632C151.808 9.91515 152.135 10.0446 152.405 10.2585C152.675 10.4724 152.875 10.7611 152.981 11.0886C153.088 11.416 153.095 11.7676 153.002 12.0991C152.91 12.4307 152.721 12.7275 152.46 12.9523H152.455Z" fill="#363842"/>
</svg>
