<svg width="71" height="71" viewBox="0 0 71 71" fill="none" xmlns="http://www.w3.org/2000/svg">
<rect x="0.608398" y="0.860107" width="69.9301" height="69.9301" rx="34.965" fill="#E9F0FF"/>
<path d="M53.8366 36.6446L48.5919 23.5328C48.4764 23.2439 48.262 23.0056 47.987 22.8603C47.712 22.715 47.3942 22.6721 47.0906 22.7395L36.8846 25.0078V21.4021C36.8846 21.0543 36.7465 20.7208 36.5006 20.4749C36.2547 20.229 35.9212 20.0909 35.5734 20.0909C35.2257 20.0909 34.8922 20.229 34.6463 20.4749C34.4004 20.7208 34.2622 21.0543 34.2622 21.4021V25.5946L23.4875 27.9892C23.2798 28.035 23.0863 28.1308 22.9239 28.2681C22.7614 28.4055 22.6348 28.5803 22.555 28.7775V28.7873L17.3102 41.8894C17.2475 42.0457 17.2157 42.2127 17.2168 42.3811C17.2168 46.2016 21.2388 47.6258 23.7727 47.6258C26.3066 47.6258 30.3287 46.2016 30.3287 42.3811C30.3297 42.2127 30.298 42.0457 30.2352 41.8894L25.5625 30.2149L34.2622 28.2858V48.937H31.6399C31.2921 48.937 30.9586 49.0752 30.7127 49.3211C30.4668 49.567 30.3287 49.9005 30.3287 50.2482C30.3287 50.596 30.4668 50.9295 30.7127 51.1754C30.9586 51.4213 31.2921 51.5594 31.6399 51.5594H39.507C39.8547 51.5594 40.1882 51.4213 40.4341 51.1754C40.68 50.9295 40.8182 50.596 40.8182 50.2482C40.8182 49.9005 40.68 49.567 40.4341 49.3211C40.1882 49.0752 39.8547 48.937 39.507 48.937H36.8846V27.6991L45.2434 25.8437L40.9116 36.6446C40.8489 36.8009 40.8171 36.9679 40.8182 37.1363C40.8182 40.9568 44.8402 42.3811 47.3741 42.3811C49.908 42.3811 53.9301 40.9568 53.9301 37.1363C53.9311 36.9679 53.8994 36.8009 53.8366 36.6446ZM23.7727 45.0035C22.5386 45.0035 20.0424 44.4118 19.8506 42.604L23.7727 32.7996L27.6948 42.604C27.5031 44.4118 25.0069 45.0035 23.7727 45.0035ZM47.3741 39.7587C46.14 39.7587 43.6438 39.167 43.452 37.3592L47.3741 27.5548L51.2962 37.3592C51.1045 39.167 48.6083 39.7587 47.3741 39.7587Z" fill="#102B6B"/>
</svg>
